<svg width="479" height="101" viewBox="0 0 479 101" fill="none" xmlns="http://www.w3.org/2000/svg">
<path d="M119.686 66.396L109.697 31.4869H117.76L123.538 55.7426H123.828L130.203 31.4869H137.106L143.464 55.7938H143.771L149.549 31.4869H157.612L147.623 66.396H140.43L133.782 43.5722H133.51L126.879 66.396H119.686ZM170.545 66.9074C167.852 66.9074 165.534 66.3619 163.591 65.271C161.659 64.1688 160.17 62.6119 159.125 60.6006C158.079 58.5778 157.557 56.1858 157.557 53.4244C157.557 50.7313 158.079 48.3676 159.125 46.3335C160.17 44.2994 161.642 42.7142 163.54 41.5778C165.449 40.4415 167.687 39.8733 170.255 39.8733C171.983 39.8733 173.591 40.1517 175.079 40.7085C176.579 41.254 177.886 42.0778 179 43.1801C180.125 44.2824 181 45.6688 181.625 47.3392C182.25 48.9983 182.562 50.9415 182.562 53.1688V55.1631H160.454V50.6631H175.727C175.727 49.6176 175.5 48.6915 175.045 47.8847C174.591 47.0778 173.96 46.4472 173.153 45.9926C172.358 45.5267 171.432 45.2938 170.375 45.2938C169.273 45.2938 168.295 45.5494 167.443 46.0608C166.602 46.5608 165.943 47.2369 165.466 48.0892C164.988 48.9301 164.744 49.8676 164.733 50.9017V55.1801C164.733 56.4756 164.971 57.5949 165.449 58.5381C165.937 59.4813 166.625 60.2085 167.511 60.7199C168.398 61.2313 169.449 61.4869 170.665 61.4869C171.471 61.4869 172.21 61.3733 172.88 61.146C173.551 60.9188 174.125 60.5778 174.602 60.1233C175.079 59.6688 175.443 59.1119 175.693 58.4528L182.409 58.896C182.068 60.5097 181.369 61.9188 180.312 63.1233C179.267 64.3165 177.915 65.2483 176.255 65.9188C174.608 66.5778 172.704 66.9074 170.545 66.9074ZM187.437 66.396V31.4869H194.699V44.6119H194.92C195.238 43.9074 195.699 43.1915 196.301 42.4642C196.915 41.7256 197.71 41.1119 198.687 40.6233C199.676 40.1233 200.903 39.8733 202.369 39.8733C204.278 39.8733 206.04 40.3733 207.653 41.3733C209.267 42.3619 210.557 43.8563 211.523 45.8563C212.488 47.8449 212.971 50.3392 212.971 53.3392C212.971 56.2597 212.5 58.7256 211.557 60.7369C210.625 62.7369 209.352 64.254 207.738 65.2881C206.136 66.3108 204.341 66.8222 202.352 66.8222C200.943 66.8222 199.744 66.5892 198.755 66.1233C197.778 65.6574 196.977 65.0722 196.352 64.3676C195.727 63.6517 195.25 62.9301 194.92 62.2028H194.596V66.396H187.437ZM194.545 53.3051C194.545 54.8619 194.761 56.2199 195.193 57.379C195.625 58.5381 196.25 59.4415 197.068 60.0892C197.886 60.7256 198.88 61.0438 200.051 61.0438C201.233 61.0438 202.233 60.7199 203.051 60.0722C203.869 59.4131 204.488 58.504 204.909 57.3449C205.341 56.1744 205.557 54.8278 205.557 53.3051C205.557 51.7938 205.346 50.4642 204.926 49.3165C204.505 48.1688 203.886 47.271 203.068 46.6233C202.25 45.9756 201.244 45.6517 200.051 45.6517C198.869 45.6517 197.869 45.9642 197.051 46.5892C196.244 47.2142 195.625 48.1006 195.193 49.2483C194.761 50.396 194.545 51.7483 194.545 53.3051ZM231.129 54.2597H237.402L240.555 58.3165L243.657 61.9301L249.504 69.2597H242.618L238.595 64.3165L236.532 61.3847L231.129 54.2597ZM250.032 48.9415C250.032 52.7483 249.311 55.9869 247.868 58.6574C246.436 61.3278 244.481 63.3676 242.004 64.7767C239.538 66.1744 236.765 66.8733 233.686 66.8733C230.584 66.8733 227.799 66.1688 225.334 64.7597C222.868 63.3506 220.919 61.3108 219.487 58.6403C218.055 55.9699 217.339 52.7369 217.339 48.9415C217.339 45.1347 218.055 41.896 219.487 39.2256C220.919 36.5551 222.868 34.521 225.334 33.1233C227.799 31.7142 230.584 31.0097 233.686 31.0097C236.765 31.0097 239.538 31.7142 242.004 33.1233C244.481 34.521 246.436 36.5551 247.868 39.2256C249.311 41.896 250.032 45.1347 250.032 48.9415ZM242.549 48.9415C242.549 46.4756 242.18 44.396 241.442 42.7028C240.714 41.0097 239.686 39.7256 238.356 38.8506C237.027 37.9756 235.47 37.5381 233.686 37.5381C231.902 37.5381 230.345 37.9756 229.015 38.8506C227.686 39.7256 226.652 41.0097 225.913 42.7028C225.186 44.396 224.822 46.4756 224.822 48.9415C224.822 51.4074 225.186 53.4869 225.913 55.1801C226.652 56.8733 227.686 58.1574 229.015 59.0324C230.345 59.9074 231.902 60.3449 233.686 60.3449C235.47 60.3449 237.027 59.9074 238.356 59.0324C239.686 58.1574 240.714 56.8733 241.442 55.1801C242.18 53.4869 242.549 51.4074 242.549 48.9415ZM272.153 55.2483V40.2142H279.415V66.396H272.443V61.6403H272.17C271.579 63.1744 270.596 64.4074 269.221 65.3392C267.858 66.271 266.193 66.7369 264.227 66.7369C262.477 66.7369 260.937 66.3392 259.608 65.5438C258.278 64.7483 257.238 63.6176 256.488 62.1517C255.75 60.6858 255.375 58.9301 255.363 56.8847V40.2142H262.625V55.5892C262.636 57.1347 263.051 58.3563 263.869 59.254C264.687 60.1517 265.784 60.6006 267.159 60.6006C268.034 60.6006 268.852 60.4017 269.613 60.004C270.375 59.5949 270.988 58.9926 271.454 58.1972C271.932 57.4017 272.165 56.4188 272.153 55.2483ZM297.155 66.9074C294.461 66.9074 292.143 66.3619 290.2 65.271C288.268 64.1688 286.78 62.6119 285.734 60.6006C284.689 58.5778 284.166 56.1858 284.166 53.4244C284.166 50.7313 284.689 48.3676 285.734 46.3335C286.78 44.2994 288.251 42.7142 290.149 41.5778C292.058 40.4415 294.297 39.8733 296.865 39.8733C298.592 39.8733 300.2 40.1517 301.689 40.7085C303.189 41.254 304.496 42.0778 305.609 43.1801C306.734 44.2824 307.609 45.6688 308.234 47.3392C308.859 48.9983 309.172 50.9415 309.172 53.1688V55.1631H287.064V50.6631H302.336C302.336 49.6176 302.109 48.6915 301.655 47.8847C301.2 47.0778 300.569 46.4472 299.763 45.9926C298.967 45.5267 298.041 45.2938 296.984 45.2938C295.882 45.2938 294.905 45.5494 294.052 46.0608C293.211 46.5608 292.552 47.2369 292.075 48.0892C291.598 48.9301 291.353 49.8676 291.342 50.9017V55.1801C291.342 56.4756 291.581 57.5949 292.058 58.5381C292.547 59.4813 293.234 60.2085 294.121 60.7199C295.007 61.2313 296.058 61.4869 297.274 61.4869C298.081 61.4869 298.819 61.3733 299.49 61.146C300.16 60.9188 300.734 60.5778 301.211 60.1233C301.689 59.6688 302.052 59.1119 302.302 58.4528L309.018 58.896C308.677 60.5097 307.978 61.9188 306.922 63.1233C305.876 64.3165 304.524 65.2483 302.865 65.9188C301.217 66.5778 299.314 66.9074 297.155 66.9074ZM335.694 47.6801L329.047 48.0892C328.933 47.521 328.689 47.0097 328.314 46.5551C327.939 46.0892 327.444 45.7199 326.831 45.4472C326.228 45.1631 325.507 45.021 324.666 45.021C323.541 45.021 322.592 45.2597 321.819 45.7369C321.047 46.2028 320.66 46.8278 320.66 47.6119C320.66 48.2369 320.91 48.7653 321.41 49.1972C321.91 49.629 322.768 49.9756 323.984 50.2369L328.723 51.1915C331.268 51.7142 333.166 52.5551 334.416 53.7142C335.666 54.8733 336.291 56.396 336.291 58.2824C336.291 59.9983 335.785 61.504 334.774 62.7994C333.774 64.0949 332.399 65.1063 330.649 65.8335C328.91 66.5494 326.905 66.9074 324.632 66.9074C321.166 66.9074 318.405 66.1858 316.348 64.7426C314.302 63.2881 313.103 61.3108 312.751 58.8108L319.893 58.4358C320.109 59.4926 320.632 60.2994 321.461 60.8563C322.291 61.4017 323.353 61.6744 324.649 61.6744C325.922 61.6744 326.944 61.4301 327.717 60.9415C328.501 60.4415 328.899 59.7994 328.91 59.0153C328.899 58.3563 328.621 57.8165 328.075 57.396C327.53 56.9642 326.689 56.6347 325.552 56.4074L321.018 55.504C318.461 54.9926 316.558 54.1063 315.308 52.8449C314.069 51.5835 313.45 49.9756 313.45 48.021C313.45 46.3392 313.905 44.8903 314.814 43.6744C315.734 42.4585 317.024 41.521 318.683 40.8619C320.353 40.2028 322.308 39.8733 324.547 39.8733C327.853 39.8733 330.456 40.5722 332.353 41.9699C334.263 43.3676 335.376 45.271 335.694 47.6801ZM354.79 40.2142V45.6688H339.023V40.2142H354.79ZM342.602 33.9415H349.863V58.3506C349.863 59.021 349.966 59.5438 350.17 59.9188C350.375 60.2824 350.659 60.5381 351.023 60.6858C351.398 60.8335 351.829 60.9074 352.318 60.9074C352.659 60.9074 353 60.879 353.341 60.8222C353.682 60.754 353.943 60.7028 354.125 60.6688L355.267 66.0722C354.903 66.1858 354.392 66.3165 353.733 66.4642C353.074 66.6233 352.273 66.7199 351.329 66.754C349.579 66.8222 348.045 66.5892 346.727 66.0551C345.42 65.521 344.403 64.6915 343.676 63.5665C342.949 62.4415 342.591 61.021 342.602 59.3051V33.9415Z" fill="#6287F6"/>
<path d="M370.765 31.4869H379.868L389.481 54.9415H389.89L399.504 31.4869H408.606V66.396H401.447V43.6744H401.157L392.123 66.2256H387.248L378.214 43.5892H377.924V66.396H370.765V31.4869ZM445.488 43.7085H438.023C437.886 42.7426 437.608 41.8847 437.187 41.1347C436.767 40.3733 436.227 39.7256 435.568 39.1915C434.909 38.6574 434.148 38.2483 433.284 37.9642C432.432 37.6801 431.505 37.5381 430.505 37.5381C428.699 37.5381 427.125 37.9869 425.784 38.8847C424.443 39.771 423.403 41.0665 422.665 42.771C421.926 44.4642 421.557 46.521 421.557 48.9415C421.557 51.4301 421.926 53.521 422.665 55.2142C423.415 56.9074 424.46 58.1858 425.801 59.0494C427.142 59.9131 428.693 60.3449 430.454 60.3449C431.443 60.3449 432.358 60.2142 433.199 59.9528C434.051 59.6915 434.807 59.3108 435.466 58.8108C436.125 58.2994 436.67 57.6801 437.102 56.9528C437.545 56.2256 437.852 55.396 438.023 54.4642L445.488 54.4983C445.295 56.1006 444.812 57.646 444.04 59.1347C443.278 60.6119 442.25 61.9358 440.954 63.1063C439.67 64.2653 438.136 65.1858 436.352 65.8676C434.579 66.5381 432.574 66.8733 430.335 66.8733C427.221 66.8733 424.437 66.1688 421.983 64.7597C419.54 63.3506 417.608 61.3108 416.187 58.6403C414.778 55.9699 414.074 52.7369 414.074 48.9415C414.074 45.1347 414.79 41.896 416.221 39.2256C417.653 36.5551 419.596 34.521 422.051 33.1233C424.505 31.7142 427.267 31.0097 430.335 31.0097C432.358 31.0097 434.233 31.2938 435.96 31.8619C437.699 32.4301 439.238 33.2597 440.579 34.3506C441.92 35.4301 443.011 36.754 443.852 38.3222C444.704 39.8903 445.25 41.6858 445.488 43.7085ZM450.781 66.396V31.4869H464.554C467.201 31.4869 469.457 31.9926 471.321 33.004C473.184 34.004 474.605 35.396 475.582 37.1801C476.571 38.9528 477.065 40.9983 477.065 43.3165C477.065 45.6347 476.565 47.6801 475.565 49.4528C474.565 51.2256 473.116 52.6063 471.219 53.5949C469.332 54.5835 467.048 55.0778 464.366 55.0778H455.588V49.1631H463.173C464.594 49.1631 465.764 48.9188 466.684 48.4301C467.616 47.9301 468.309 47.2426 468.764 46.3676C469.23 45.4813 469.463 44.4642 469.463 43.3165C469.463 42.1574 469.23 41.146 468.764 40.2824C468.309 39.4074 467.616 38.7313 466.684 38.254C465.753 37.7653 464.571 37.521 463.139 37.521H458.162V66.396H450.781Z" fill="#8FE9E9"/>
<rect x="4" y="15.396" width="95" height="67" rx="16" stroke="#2F4170" stroke-width="8"/>
<rect x="4" y="15.396" width="95" height="67" rx="16" stroke="#2F4170" stroke-width="8"/>
<path d="M80.5688 83.5296L89.1196 92.062C89.1196 92.062 90.2856 89.8793 92.0347 88.8872C93.7837 87.895 96.6987 87.895 96.6987 87.895L86.2045 77.3783L80.5688 83.5296Z" fill="url(#paint0_linear_3_37)"/>
<path d="M4.69991 2.45614L11.4187 31.832C11.5224 32.2854 11.7778 32.6877 12.1409 32.9695L68.4834 76.6912C69.2784 77.3082 70.4008 77.2157 71.0887 76.4764L72.3057 75.1683C73.0179 74.4028 73.0247 73.2039 72.3212 72.4301L28.2921 24.0011L75.1679 69.5478C75.9117 70.2706 77.076 70.2841 77.8358 69.5789L79.4437 68.0864C80.1916 67.3922 80.2993 66.2309 79.6925 65.4057L36.7019 6.94209C36.417 6.5546 36.004 6.28591 35.5396 6.18595L7.01145 0.0443386C5.60872 -0.257645 4.37389 1.03074 4.69991 2.45614Z" fill="url(#paint1_linear_3_37)"/>
<path d="M103.112 94.2447C103.112 97.642 100.415 100.396 97.0874 100.396C93.7602 100.396 91.063 97.642 91.063 94.2447C91.063 90.8475 93.7602 88.0935 97.0874 88.0935C100.415 88.0935 103.112 90.8475 103.112 94.2447Z" fill="url(#paint2_linear_3_37)"/>
<path d="M69.9005 87.154C69.138 86.3705 69.142 85.1041 69.9094 84.3256L87.4947 66.4854C88.2621 65.7069 89.5023 65.711 90.2648 66.4945L92.4246 68.7141C93.1871 69.4976 93.1831 70.764 92.4157 71.5425L74.8304 89.3827C74.063 90.1612 72.8228 90.1571 72.0603 89.3736L69.9005 87.154Z" fill="url(#paint3_linear_3_37)"/>
<ellipse cx="64.2447" cy="29.9091" rx="3.44061" ry="3.51304" fill="#6287F6"/>
<ellipse cx="74.5666" cy="29.9091" rx="3.44061" ry="3.51304" fill="#6287F6"/>
<ellipse cx="84.8884" cy="29.9091" rx="3.44061" ry="3.51304" fill="#6287F6"/>
<defs>
<linearGradient id="paint0_linear_3_37" x1="53.8795" y1="0" x2="53.8795" y2="100.396" gradientUnits="userSpaceOnUse">
<stop stop-color="#8FE9E9"/>
<stop offset="1" stop-color="#6287F6"/>
</linearGradient>
<linearGradient id="paint1_linear_3_37" x1="53.8795" y1="0" x2="53.8795" y2="100.396" gradientUnits="userSpaceOnUse">
<stop stop-color="#8FE9E9"/>
<stop offset="1" stop-color="#6287F6"/>
</linearGradient>
<linearGradient id="paint2_linear_3_37" x1="53.8795" y1="0" x2="53.8795" y2="100.396" gradientUnits="userSpaceOnUse">
<stop stop-color="#8FE9E9"/>
<stop offset="1" stop-color="#6287F6"/>
</linearGradient>
<linearGradient id="paint3_linear_3_37" x1="53.8795" y1="0" x2="53.8795" y2="100.396" gradientUnits="userSpaceOnUse">
<stop stop-color="#8FE9E9"/>
<stop offset="1" stop-color="#6287F6"/>
</linearGradient>
</defs>
</svg>
